<svg xmlns="http://www.w3.org/2000/svg" xml:space="preserve" style="enable-background:new 0 0 47.5 47.5" viewBox="0 0 47.5 47.5"><defs><clipPath id="a"><path d="M0 38h38V0H0v38z"/></clipPath></defs><g clip-path="url(#a)" transform="matrix(1.25 0 0 -1.25 0 47.5)"><path d="M0 0h-28a4 4 0 0 1-4-4v-15a4 4 0 0 1 4-4h11.416c.52-.596 1.477-1 2.584-1s2.064.404 2.584 1H0a4 4 0 0 1 4 4v15a4 4 0 0 1-4 4" style="fill:#269;fill-opacity:1;fill-rule:nonzero;stroke:none" transform="translate(33 30)"/><path d="M0 0a2 2 0 0 0-4 0v18a2 2 0 0 0 4 0V0z" style="fill:#292f33;fill-opacity:1;fill-rule:nonzero;stroke:none" transform="translate(21 10)"/><path d="M0 0a2 2 0 0 0-2-2h-12a2 2 0 0 0-2 2v18a2 2 0 0 0 2 2h12a2 2 0 0 0 2-2V0z" style="fill:#99aab5;fill-opacity:1;fill-rule:nonzero;stroke:none" transform="translate(19 11)"/><path d="M0 0c-.999 1.998-3.657 2-4 2-2 0-5-2-8-2-1 0-2 .896-2 2v16c0 1.104 1 2 2 2 3.255 0 6 2 8 2 3 0 4-1.896 4-3V0z" style="fill:#e1e8ed;fill-opacity:1;fill-rule:nonzero;stroke:none" transform="translate(19 11)"/><path d="M0 0a2 2 0 0 0-2-2h-12a2 2 0 0 0-2 2v18a2 2 0 0 0 2 2h12a2 2 0 0 0 2-2V0z" style="fill:#99aab5;fill-opacity:1;fill-rule:nonzero;stroke:none" transform="translate(35 11)"/><path d="M0 0c.999 1.998 3.657 2 4 2 2 0 5-2 8-2 1 0 2 .896 2 2v16c0 1.104-1 2-2 2-3.256 0-6 2-8 2-3 0-4-1.896-4-3V0z" style="fill:#ccd6dd;fill-opacity:1;fill-rule:nonzero;stroke:none" transform="translate(19 11)"/></g></svg>