<svg xmlns="http://www.w3.org/2000/svg" xml:space="preserve" style="enable-background:new 0 0 45 45" viewBox="0 0 45 45"><defs><clipPath id="a" clipPathUnits="userSpaceOnUse"><path d="M0 36h36V0H0v36Z"/></clipPath></defs><g clip-path="url(#a)" transform="matrix(1.25 0 0 -1.25 0 45)"><path d="M0 0c0-8.837 7.164-16 16-16 8.837 0 16 7.163 16 16 0 8.836-7.163 16-16 16C7.164 16 0 8.836 0 0" style="fill:#ffcc4d;fill-opacity:1;fill-rule:nonzero;stroke:none" transform="translate(2 20)"/><path d="M0 0c0-1.381-.896-2.5-2-2.5S-4-1.381-4 0c0 1.38.896 2.5 2 2.5S0 1.38 0 0" style="fill:#664500;fill-opacity:1;fill-rule:nonzero;stroke:none" transform="translate(15.406 25.5)"/><path d="M0 0c0-1.381-.895-2.5-2-2.5-1.104 0-2 1.119-2 2.5 0 1.38.896 2.5 2 2.5 1.105 0 2-1.12 2-2.5" style="fill:#664500;fill-opacity:1;fill-rule:nonzero;stroke:none" transform="translate(26 24.5)"/><path d="M0 0a.917.917 0 0 0-.391.398.8.8 0 0 0 .393 1.113c4.266 1.83 7.699.043 7.843-.034.433-.231.608-.748.391-1.154-.216-.405-.74-.546-1.173-.318C6.94.069 4.231 1.437.785-.042A.915.915 0 0 0 0 0" style="fill:#664500;fill-opacity:1;fill-rule:nonzero;stroke:none" transform="translate(9.67 29.667)"/><path d="M0 0a.919.919 0 0 0-.276.486.799.799 0 0 0 .665.974c4.592.678 7.452-1.929 7.573-2.04.36-.334.395-.877.082-1.215-.312-.336-.855-.338-1.214-.006C6.726-1.709 4.458.307.748-.24A.907.907 0 0 0 0 0" style="fill:#664500;fill-opacity:1;fill-rule:nonzero;stroke:none" transform="translate(14.743 16.428)"/><path d="M0 0a.924.924 0 0 0-.362.424.8.8 0 0 0 .467 1.084c4.381 1.536 7.685-.48 7.824-.567.415-.26.554-.787.311-1.178-.242-.39-.776-.495-1.191-.238-.12.073-2.728 1.621-6.267.38A.916.916 0 0 0 0 0" style="fill:#664500;fill-opacity:1;fill-rule:nonzero;stroke:none" transform="translate(20.43 25.917)"/><path d="M0 0s1.265.411 1.429 1.352c.173.971-.624 1.167-.624 1.167s1.041.208 1.172 1.376c.123 1.1-.862 1.363-.862 1.363s.97.4 1.016 1.539c.038.959-.995 1.428-.995 1.428s5.038 1.22 5.555 1.34c.516.121 1.321.616 1.07 1.695-.249 1.08-1.204 1.118-1.698 1.003-.494-.116-6.744-1.567-8.9-2.069-.23-.053-1.308-.302-1.439-.334-.54-.127-.785.111-.405.512.509.536.833 1.129.947 2.113.119 1.036-.232 2.314-.433 2.809-.374.921-1.005 1.649-1.734 1.899-1.138.39-1.946-.321-1.542-1.561.604-1.855.209-3.375-.833-4.293-2.449-2.157-3.589-3.695-2.83-6.973.827-3.575 4.377-5.876 7.952-5.048C-2.965-.64 0 0 0 0" style="fill:#f4900c;fill-opacity:1;fill-rule:nonzero;stroke:none" transform="translate(17.276 .868)"/></g></svg>